<svg viewBox="0 0 32 32" fill="#434B60" xmlns="http://www.w3.org/2000/svg">
<path d="M26.6666 9.30542C25.8732 9.65342 25.0279 9.88408 24.1466 9.99608C25.0532 9.45475 25.7452 8.60408 26.0706 7.57875C25.2252 8.08275 24.2919 8.43875 23.2972 8.63742C22.4946 7.78275 21.3506 7.25342 20.1026 7.25342C17.6812 7.25342 15.7319 9.21875 15.7319 11.6281C15.7319 11.9748 15.7613 12.3081 15.8333 12.6254C12.1973 12.4481 8.97992 10.7054 6.81859 8.05075C6.44125 8.70542 6.21992 9.45475 6.21992 10.2614C6.21992 11.7761 6.99992 13.1188 8.16258 13.8961C7.45992 13.8828 6.77059 13.6788 6.18659 13.3574C6.18659 13.3708 6.18659 13.3881 6.18659 13.4054C6.18659 15.5308 7.70258 17.2961 9.69058 17.7028C9.33458 17.8001 8.94658 17.8468 8.54392 17.8468C8.26392 17.8468 7.98125 17.8308 7.71592 17.7721C8.28258 19.5041 9.89058 20.7774 11.8026 20.8188C10.3146 21.9828 8.42525 22.6841 6.37992 22.6841C6.02125 22.6841 5.67725 22.6681 5.33325 22.6241C7.27058 23.8734 9.56658 24.5868 12.0426 24.5868C20.0906 24.5868 24.4906 17.9201 24.4906 12.1414C24.4906 11.9481 24.4839 11.7614 24.4746 11.5761C25.3426 10.9601 26.0719 10.1908 26.6666 9.30542Z"/>
</svg>
