<svg viewBox="0 0 50 50" fill="none" xmlns="http://www.w3.org/2000/svg">
<path d="M44.5312 27.3438L44.5305 25C44.5305 24.568 44.1813 24.2188 43.7492 24.2188H41.4055V23.4375H42.968C43.4 23.4375 43.7492 23.0883 43.7492 22.6562V20.3125C43.7492 19.8805 43.4 19.5312 42.968 19.5312H41.4055C39.2516 19.5312 37.4992 21.2836 37.4992 23.4375V24.2188C37.0672 24.2188 36.718 24.568 36.718 25V27.3438H35.1555V17.1875C35.1555 15.8953 34.1039 14.8438 32.8117 14.8438H25.7266C25.6289 14.1094 25.3875 13.4172 25.0367 12.7867L26.3336 11.4898C26.5273 11.2953 26.6055 11.0141 26.5391 10.7477L25.7578 7.62266C25.7023 7.40156 25.5531 7.21562 25.3492 7.11328L22.2242 5.55078C22.1797 5.52813 22.132 5.52656 22.0852 5.51328L22.0898 5.49844L6.90156 1.15937C6.47266 0.919531 5.98359 0.78125 5.46797 0.78125C4.19688 0.78125 3.07266 1.59141 2.67031 2.79766L0.821094 8.34688C0.794531 8.42578 0.78125 8.50937 0.78125 8.59375V30.4688H0.785938C0.785938 30.5516 0.794531 30.6352 0.821094 30.7156L2.38047 35.3938C2.95625 37.1203 4.56562 38.2812 6.38594 38.2812C7.51406 38.2812 8.57422 37.8422 9.37266 37.0445L12.5945 33.8227C13.0367 33.3805 13.2805 32.7914 13.2805 32.1656L13.2812 26.5625C13.2812 26.4414 13.2531 26.3211 13.1992 26.2133L12.418 24.6508C12.3055 24.4258 12.0922 24.2688 11.8445 24.2289C11.5969 24.1914 11.3445 24.2703 11.1664 24.4477L9.60391 26.0102C9.45703 26.1555 9.375 26.3547 9.375 26.5625V27.2516C9.375 27.493 9.24141 27.7094 9.02578 27.8172C8.27734 28.1898 7.8125 28.9422 7.8125 29.7789V30.6391L5.70859 31.1648L4.77109 30.2273L9.66719 10.6445L18.3547 17.9953C17.1375 19.4789 16.4062 21.3742 16.4062 23.4375V32.175C15.4992 32.4984 14.8438 33.3578 14.8438 34.375C14.8438 35.6672 15.8953 36.718 17.1875 36.718H20.3125V38.2805H16.4055C13.3906 38.2813 10.9375 40.7344 10.9375 43.75C10.9375 46.7648 13.3906 49.218 16.4055 49.218H42.968C45.9836 49.218 48.4367 46.7648 48.4367 43.7492C48.4367 40.7336 45.9836 38.2805 42.968 38.2805H39.0617V36.718H46.8742C48.1664 36.718 49.218 35.6664 49.218 34.3742L49.2188 32.0312C49.2188 29.4461 47.1156 27.3438 44.5312 27.3438V27.3438ZM45.6508 45.3266C45.7961 45.0797 45.9086 44.8141 45.9828 44.5305H46.7953C46.6937 45.0281 46.4953 45.4898 46.2234 45.9L45.6508 45.3266ZM45.9828 42.9688C45.9094 42.6852 45.7969 42.4187 45.6508 42.1727L46.2234 41.6C46.4953 42.0094 46.6937 42.4719 46.7953 42.9695H45.9828V42.9688ZM44.5312 43.75C44.5312 44.6109 43.8305 45.3117 42.9688 45.3117H39.0625H32.8125H26.5625H20.3125H16.4062C15.5445 45.3117 14.8438 44.6109 14.8438 43.7492C14.8438 42.8875 15.5445 42.1867 16.4062 42.1867H20.3125H26.5625H32.8125H39.0625H42.9688C43.8305 42.1875 44.5312 42.8875 44.5312 43.75ZM19.5312 46.8742V47.6555H17.9688V46.8742H19.5312ZM21.0938 46.8742H22.6562V47.6555H21.0938V46.8742ZM24.2188 46.8742H25.7812V47.6555H24.2188V46.8742ZM27.343 46.8742H28.9062V47.6555H27.343V46.8742ZM30.4688 46.8742H32.0312V47.6555H30.4688V46.8742ZM33.5938 46.8742H35.1562V47.6555H33.5938V46.8742ZM36.718 46.8742H38.2805V47.6555H36.718V46.8742ZM39.843 46.8742H41.4062V47.6555H39.843V46.8742ZM13.7234 42.1719C13.5781 42.4187 13.4656 42.6844 13.3914 42.968H12.5781C12.6797 42.4703 12.8781 42.0086 13.15 41.5984L13.7234 42.1719ZM13.3914 44.5305C13.4648 44.8141 13.5773 45.0805 13.7234 45.3266L13.1508 45.8992C12.8789 45.4898 12.6805 45.0273 12.5789 44.5297H13.3914V44.5305ZM33.5938 40.625V39.8438H35.1562V40.625H33.5938ZM24.2188 40.625V39.8438H25.7812V40.625H24.2188ZM27.343 39.8438H28.9062V40.625H27.343V39.8438ZM30.4688 39.8438H32.0312V40.625H30.4688V39.8438ZM22.6562 39.8438V40.625H21.0938V39.8438H22.6562ZM19.5312 40.625H17.9688V39.8438H19.5312V40.625ZM39.843 40.625V39.8438H41.4062V40.625H39.843ZM38.2812 40.625H36.7188V39.8438H38.2812V40.625ZM16.4062 39.8438V40.625C15.8289 40.625 15.2938 40.793 14.8289 41.0672L14.2555 40.4938C14.8727 40.0844 15.6109 39.8438 16.4062 39.8438ZM14.2555 47.0047L14.8289 46.4312C15.2938 46.7055 15.8281 46.8734 16.4062 46.8734V47.6547H16.4055C15.6109 47.6555 14.8727 47.4141 14.2555 47.0047ZM42.9688 46.8742C43.5469 46.8742 44.0813 46.7062 44.5461 46.432L45.1195 47.0055C44.5023 47.4148 43.7641 47.6562 42.9688 47.6562V46.8742ZM45.1187 40.4938L44.5453 41.0672C44.0813 40.793 43.5461 40.625 42.9688 40.625V39.8438C43.7633 39.8438 44.5016 40.0844 45.1187 40.4938ZM39.0625 23.4367C39.0625 22.1445 40.1141 21.093 41.4062 21.093H42.1875V21.8742H41.4062C40.5445 21.8742 39.8438 22.575 39.8438 23.4367V24.218H39.0625V23.4367ZM38.2812 25.7812H42.9688V27.3438H38.2812V25.7812ZM33.593 17.1875V32.0312H17.9688V31.25H28.125C29.4172 31.25 30.4688 30.1984 30.4688 28.9062V19.5312C30.4688 18.2391 29.418 17.1875 28.1258 17.1875H21.7937C22.7562 16.6914 23.8445 16.4062 25.0008 16.4062H32.8133C33.243 16.4062 33.593 16.7563 33.593 17.1875ZM24.3289 8.35L24.9156 10.6969L24.0875 11.525C23.6461 11.0805 23.1367 10.6945 22.5539 10.4031L19.1727 8.7125L19.2328 8.59375H21.0938C21.3891 8.59375 21.6602 8.42656 21.7922 8.16172L22.2242 7.29844L24.3289 8.35ZM8.40469 3.21406L20.7555 6.74219L20.6109 7.03125H18.75C18.4539 7.03125 18.1836 7.19844 18.0508 7.46328L17.775 8.01484L8.45078 3.35156L8.40469 3.21406ZM2.34375 29.6875V28.125H3.68672L3.29609 29.6875H2.34375ZM5.65781 32.7883L8.78281 32.007C9.13047 31.9203 9.375 31.6078 9.375 31.25V29.7797C9.375 29.5391 9.50859 29.3227 9.72422 29.2148C10.4727 28.8398 10.9375 28.0883 10.9375 27.2508V26.8852L11.5047 26.318L11.7188 26.7461V32.1648C11.7188 32.3734 11.6375 32.5695 11.4906 32.7172L8.26875 35.9391C7.76484 36.4422 7.09687 36.7188 6.38594 36.7188C5.23906 36.7188 4.225 35.9875 3.8625 34.8992L2.64609 31.25H3.58203L4.91562 32.5836C5.11016 32.7766 5.39375 32.8555 5.65781 32.7883ZM4.07734 26.5625H2.34375V8.72031L4.15234 3.29219C4.34219 2.72422 4.87109 2.34375 5.46875 2.34375C6.06641 2.34375 6.59453 2.725 6.78438 3.29141L8.56172 8.62422L4.07734 26.5625ZM10.1156 8.34609L9.14922 5.44766L21.8547 11.8008C23.0875 12.4172 23.918 13.5625 24.1469 14.8867C22.368 15.0625 20.7492 15.7859 19.4547 16.882L10.0891 8.95547L10.132 8.78203C10.1687 8.63828 10.1633 8.48672 10.1156 8.34609V8.34609ZM19.7734 18.75H28.125C28.5555 18.75 28.9055 19.1 28.9055 19.5312V28.9062C28.9055 29.3375 28.5555 29.6875 28.1242 29.6875H17.9688V23.4375C17.9688 21.6352 18.6555 19.9953 19.7734 18.75V18.75ZM16.4062 34.375C16.4062 33.9438 16.7563 33.5938 17.1875 33.5938H33.5938V35.1562H17.1875C16.7563 35.1555 16.4062 34.8055 16.4062 34.375V34.375ZM37.5 36.7188V38.2812H21.875V36.7188H37.5ZM47.6555 34.3742C47.6555 34.8055 47.3055 35.1555 46.8742 35.1555H35.1562V28.9055H44.5312C46.2547 28.9055 47.6562 30.307 47.6562 32.0305L47.6555 34.3742Z" fill="#363D4F"/>
<path d="M35.9375 30.4688H37.5V33.5938H35.9375V30.4688Z" fill="#363D4F"/>
<path d="M38.2812 30.4688H39.8438V33.5938H38.2812V30.4688Z" fill="#363D4F"/>
<path d="M40.625 30.4688H42.1875V33.5938H40.625V30.4688Z" fill="#363D4F"/>
<path d="M5.07812 3.90625C4.43203 3.90625 3.90625 4.43125 3.90625 5.07812C3.90625 5.72422 4.43203 6.25 5.07812 6.25C5.72422 6.25 6.25 5.72422 6.25 5.07812C6.25 4.43125 5.72422 3.90625 5.07812 3.90625ZM5.07812 5.46797C4.8625 5.46797 4.6875 5.29297 4.6875 5.07812C4.6875 4.8625 4.8625 4.6875 5.07812 4.6875C5.29297 4.6875 5.46875 4.8625 5.46875 5.07812C5.46875 5.29297 5.29297 5.46797 5.07812 5.46797Z" fill="#363D4F"/>
<path d="M21.4844 14.8428C22.1305 14.8428 22.6562 14.317 22.6562 13.6709C22.6562 13.0248 22.1305 12.499 21.4844 12.499C20.8383 12.499 20.3125 13.0248 20.3125 13.6709C20.3125 14.317 20.8383 14.8428 21.4844 14.8428ZM21.4844 13.2811C21.6992 13.2811 21.875 13.4561 21.875 13.6717C21.875 13.8865 21.7 14.0623 21.4844 14.0623C21.2688 14.0623 21.0938 13.8873 21.0938 13.6717C21.0938 13.4561 21.2688 13.2811 21.4844 13.2811Z" fill="#363D4F"/>
<path d="M40.4078 44.5308H42.968V42.9683H40.407C40.1359 42.5034 39.6375 42.187 39.0625 42.187C38.4867 42.187 37.9883 42.5034 37.7172 42.9683H34.157C33.8859 42.5034 33.3875 42.187 32.8125 42.187C32.2367 42.187 31.7383 42.5034 31.4672 42.9683H27.907C27.6359 42.5034 27.1375 42.187 26.5625 42.187C25.9867 42.187 25.4883 42.5034 25.2172 42.9683H21.657C21.3859 42.5034 20.8875 42.187 20.3125 42.187C19.7367 42.187 19.2383 42.5034 18.9672 42.9683H16.4062V44.5308H18.968C19.2391 44.9956 19.7375 45.312 20.3133 45.312C20.8891 45.312 21.3875 44.9956 21.6586 44.5308H25.218C25.4891 44.9956 25.9875 45.312 26.5633 45.312C27.1391 45.312 27.6375 44.9956 27.9086 44.5308H31.468C31.7391 44.9956 32.2375 45.312 32.8133 45.312C33.3891 45.312 33.8875 44.9956 34.1586 44.5308H37.718C37.9891 44.9956 38.4875 45.312 39.0633 45.312C39.6383 45.312 40.1367 44.9956 40.4078 44.5308V44.5308Z" fill="#363D4F"/>
</svg>
