<svg viewBox="0 0 32 32" fill="#434B60" xmlns="http://www.w3.org/2000/svg">
<path d="M24.7317 13.3867H22.7877V15.3218H20.8525V17.2658H22.7877V19.2009H24.7317V17.2658H26.6668V15.3218H24.7317V13.3867Z"/>
<path d="M11.9999 22.72C15.847 22.72 18.4026 20.0196 18.4026 16.2081C18.4026 15.7716 18.3573 15.4347 18.2941 15.0987H12.0008V17.3903H15.7848C15.6301 18.3636 14.639 20.264 12.0008 20.264C9.72792 20.264 7.87192 18.3814 7.87192 16.0534C7.87192 13.7254 9.72703 11.8418 12.0008 11.8418C13.3013 11.8418 14.1653 12.3965 14.6568 12.8694L16.4666 11.1325C15.3013 10.0418 13.8008 9.38672 11.9999 9.38672C8.31636 9.38672 5.33325 12.3698 5.33325 16.0534C5.33325 19.7369 8.31636 22.72 11.9999 22.72V22.72Z" />
</svg>
