<svg viewBox="0 0 50 50" fill="none" xmlns="http://www.w3.org/2000/svg">
<path d="M33.871 3.22559C28.9799 3.22559 25 7.20547 25 12.0966H26.6129C26.6129 8.09422 29.8686 4.83849 33.871 4.83849V3.22559Z" fill="#363D4F"/>
<path d="M41.1289 12.0967C41.1289 16.099 37.8732 19.3547 33.8708 19.3547V20.9676C38.7619 20.9676 42.7418 16.9878 42.7418 12.0967H41.1289Z" fill="#363D4F"/>
<path d="M45.9677 12.0968C45.9677 5.42662 40.5411 0 33.8709 0C29.2386 0 25.2122 2.61939 23.1799 6.45161H4.83868C4.39253 6.45161 4.03223 6.81192 4.03223 7.25806V49.1935C4.03223 49.6397 4.39253 50 4.83868 50H40.3226C40.7687 50 41.129 49.6397 41.129 49.1935V21.7517C44.0603 19.5419 45.9677 16.0428 45.9677 12.0968V12.0968ZM24.216 19.3548H8.87094V11.2903H21.8151C21.7974 11.5581 21.7742 11.8243 21.7742 12.0968C21.7742 14.8217 22.6905 17.3308 24.216 19.3548ZM39.5161 48.3871H5.64513V8.06452H22.4798C22.2936 8.58863 22.1305 9.12338 22.0175 9.67742H8.06448C7.61834 9.67742 7.25803 10.0377 7.25803 10.4839V20.1613C7.25803 20.6074 7.61834 20.9677 8.06448 20.9677H25.6741C27.8324 22.963 30.7066 24.1935 33.8709 24.1935C35.9095 24.1935 37.8292 23.6824 39.5161 22.7878V48.3871ZM33.8709 22.5806C28.0903 22.5806 23.3871 17.8774 23.3871 12.0968C23.3871 6.31615 28.0903 1.6129 33.8709 1.6129C39.6516 1.6129 44.3548 6.31615 44.3548 12.0968C44.3548 17.8774 39.6516 22.5806 33.8709 22.5806Z" fill="#363D4F"/>
<path d="M34.6775 16.1291C36.0112 16.1291 37.0969 15.0434 37.0969 13.7097C37.0969 12.376 36.0112 11.2904 34.6775 11.2904H33.0646C32.6197 11.2904 32.2582 10.9289 32.2582 10.4839C32.2582 10.039 32.6197 9.67747 33.0646 9.67747H37.0969V8.06456H34.6775V6.45166H33.0646V8.06456C31.7309 8.06456 30.6453 9.1502 30.6453 10.4839C30.6453 11.8176 31.7309 12.9033 33.0646 12.9033H34.6775C35.1225 12.9033 35.484 13.2648 35.484 13.7097C35.484 14.1547 35.1225 14.5162 34.6775 14.5162H30.6453V16.1291H33.0646V17.742H34.6775V16.1291Z" fill="#363D4F"/>
<path d="M12.9032 24.1934H8.06451C7.61836 24.1934 7.25806 24.5537 7.25806 24.9998V29.8385C7.25806 30.2847 7.61836 30.645 8.06451 30.645H12.9032C13.3494 30.645 13.7097 30.2847 13.7097 29.8385V24.9998C13.7097 24.5537 13.3494 24.1934 12.9032 24.1934ZM12.0968 29.0321H8.87096V25.8063H12.0968V29.0321Z" fill="#363D4F"/>
<path d="M20.9677 24.1934H16.129C15.6828 24.1934 15.3225 24.5537 15.3225 24.9998V29.8385C15.3225 30.2847 15.6828 30.645 16.129 30.645H20.9677C21.4138 30.645 21.7741 30.2847 21.7741 29.8385V24.9998C21.7741 24.5537 21.4138 24.1934 20.9677 24.1934ZM20.1612 29.0321H16.9354V25.8063H20.1612V29.0321Z" fill="#363D4F"/>
<path d="M29.0324 24.1934H24.1937C23.7475 24.1934 23.3872 24.5537 23.3872 24.9998V29.8385C23.3872 30.2847 23.7475 30.645 24.1937 30.645H29.0324C29.4785 30.645 29.8388 30.2847 29.8388 29.8385V24.9998C29.8388 24.5537 29.4785 24.1934 29.0324 24.1934ZM28.2259 29.0321H25.0001V25.8063H28.2259V29.0321Z" fill="#363D4F"/>
<path d="M12.9032 32.2583H8.06451C7.61836 32.2583 7.25806 32.6186 7.25806 33.0648V37.9035C7.25806 38.3496 7.61836 38.7099 8.06451 38.7099H12.9032C13.3494 38.7099 13.7097 38.3496 13.7097 37.9035V33.0648C13.7097 32.6186 13.3494 32.2583 12.9032 32.2583ZM12.0968 37.097H8.87096V33.8712H12.0968V37.097Z" fill="#363D4F"/>
<path d="M20.9677 32.2583H16.129C15.6828 32.2583 15.3225 32.6186 15.3225 33.0648V37.9035C15.3225 38.3496 15.6828 38.7099 16.129 38.7099H20.9677C21.4138 38.7099 21.7741 38.3496 21.7741 37.9035V33.0648C21.7741 32.6186 21.4138 32.2583 20.9677 32.2583ZM20.1612 37.097H16.9354V33.8712H20.1612V37.097Z" fill="#363D4F"/>
<path d="M29.0324 32.2583H24.1937C23.7475 32.2583 23.3872 32.6186 23.3872 33.0648V37.9035C23.3872 38.3496 23.7475 38.7099 24.1937 38.7099H29.0324C29.4785 38.7099 29.8388 38.3496 29.8388 37.9035V33.0648C29.8388 32.6186 29.4785 32.2583 29.0324 32.2583ZM28.2259 37.097H25.0001V33.8712H28.2259V37.097Z" fill="#363D4F"/>
<path d="M31.4517 33.0648V45.968C31.4517 46.4141 31.812 46.7744 32.2581 46.7744H37.0968C37.543 46.7744 37.9033 46.4141 37.9033 45.968V33.0648C37.9033 32.6186 37.543 32.2583 37.0968 32.2583H32.2581C31.812 32.2583 31.4517 32.6186 31.4517 33.0648ZM33.0646 33.8712H36.2904V45.1615H33.0646V33.8712Z" fill="#363D4F"/>
<path d="M12.9032 40.3228H8.06451C7.61836 40.3228 7.25806 40.6831 7.25806 41.1292V45.9679C7.25806 46.4141 7.61836 46.7744 8.06451 46.7744H12.9032C13.3494 46.7744 13.7097 46.4141 13.7097 45.9679V41.1292C13.7097 40.6831 13.3494 40.3228 12.9032 40.3228ZM12.0968 45.1615H8.87096V41.9357H12.0968V45.1615Z" fill="#363D4F"/>
<path d="M20.9677 40.3228H16.129C15.6828 40.3228 15.3225 40.6831 15.3225 41.1292V45.9679C15.3225 46.4141 15.6828 46.7744 16.129 46.7744H20.9677C21.4138 46.7744 21.7741 46.4141 21.7741 45.9679V41.1292C21.7741 40.6831 21.4138 40.3228 20.9677 40.3228ZM20.1612 45.1615H16.9354V41.9357H20.1612V45.1615Z" fill="#363D4F"/>
<path d="M29.0324 40.3228H24.1937C23.7475 40.3228 23.3872 40.6831 23.3872 41.1292V45.9679C23.3872 46.4141 23.7475 46.7744 24.1937 46.7744H29.0324C29.4785 46.7744 29.8388 46.4141 29.8388 45.9679V41.1292C29.8388 40.6831 29.4785 40.3228 29.0324 40.3228ZM28.2259 45.1615H25.0001V41.9357H28.2259V45.1615Z" fill="#363D4F"/>
</svg>
