<svg viewBox="0 0 32 32" fill="#434B60" xmlns="http://www.w3.org/2000/svg">
<path d="M26.4764 20.6704C26.4191 20.5744 26.0644 19.8037 24.3576 18.2196C22.5708 16.5608 22.8108 16.8301 24.963 13.9619C26.2738 12.2151 26.7978 11.1484 26.6338 10.6923C26.4778 10.2576 25.5137 10.3723 25.5137 10.3723L22.3081 10.391C22.3081 10.391 22.0708 10.359 21.8934 10.4643C21.7214 10.5683 21.6108 10.8083 21.6108 10.8083C21.6108 10.8083 21.1027 12.1604 20.4253 13.3099C18.9972 15.7354 18.4252 15.8634 18.1918 15.7127C17.6491 15.362 17.7851 14.3019 17.7851 13.5499C17.7851 11.199 18.1412 10.219 17.0904 9.9656C16.7411 9.88159 16.485 9.82559 15.593 9.81626C14.4489 9.80426 13.4795 9.82026 12.9314 10.0883C12.5661 10.267 12.2847 10.6657 12.4567 10.6883C12.6688 10.7163 13.1488 10.8177 13.4035 11.1644C13.7328 11.6111 13.7208 12.6165 13.7208 12.6165C13.7208 12.6165 13.9102 15.3833 13.2795 15.7274C12.8461 15.9634 12.2527 15.482 10.9793 13.2805C10.3273 12.1538 9.83388 10.907 9.83388 10.907C9.83388 10.907 9.73921 10.675 9.56986 10.551C9.36451 10.4003 9.07649 10.3523 9.07649 10.3523L6.02827 10.371C6.02827 10.371 5.5709 10.3843 5.40289 10.583C5.25354 10.7603 5.39089 11.1257 5.39089 11.1257C5.39089 11.1257 7.77773 16.7088 10.4793 19.5236C12.9581 22.1038 15.7717 21.9345 15.7717 21.9345H17.0464C17.0464 21.9345 17.4318 21.8918 17.6278 21.6798C17.8091 21.4851 17.8025 21.1198 17.8025 21.1198C17.8025 21.1198 17.7771 19.409 18.5719 19.157C19.3546 18.9089 20.36 20.8104 21.4254 21.5425C22.2308 22.0958 22.8428 21.9745 22.8428 21.9745L25.6924 21.9345C25.6924 21.9345 27.1832 21.8425 26.4764 20.6704Z"/>
</svg>
