<svg viewBox="0 0 32 32" fill="#434B60" xmlns="http://www.w3.org/2000/svg">
<path d="M10.2399 11.9468H5.33325V26.6668H10.2399V11.9468Z"/>
<path d="M23.1377 12.1194C23.0876 12.1033 23.0402 12.0859 22.9874 12.0712C22.9241 12.0565 22.8608 12.0445 22.7962 12.0338C22.5456 11.9829 22.2713 11.9468 21.9495 11.9468C19.1985 11.9468 17.4538 13.9768 16.8788 14.761V11.9468H12.1602V26.6668H16.8788V18.6377C16.8788 18.6377 20.4448 13.5981 21.9495 17.2995C21.9495 20.6035 21.9495 26.6668 21.9495 26.6668H26.6668V16.7335C26.6668 14.5094 25.1647 12.656 23.1377 12.1194Z"/>
<path d="M7.67992 10.0268C8.97595 10.0268 10.0266 8.97619 10.0266 7.68016C10.0266 6.38413 8.97595 5.3335 7.67992 5.3335C6.38389 5.3335 5.33325 6.38413 5.33325 7.68016C5.33325 8.97619 6.38389 10.0268 7.67992 10.0268Z"/>
</svg>
