<svg viewBox="0 0 50 50" fill="none" xmlns="http://www.w3.org/2000/svg">
<path d="M41.7779 20.6288C41.9869 20.1933 42.0558 19.7037 41.9752 19.2273C41.8946 18.751 41.6685 18.3113 41.3279 17.9687C40.8813 17.5428 40.2879 17.3051 39.6708 17.3051C39.0537 17.3051 38.4603 17.5428 38.0138 17.9687L37.4622 18.521L36.681 17.7398L37.931 16.4898C38.2091 16.2231 38.5466 16.0264 38.9156 15.9158C39.2847 15.8053 39.6748 15.784 40.0537 15.8538C41.1422 16.0131 42.2528 15.9169 43.2978 15.5728C44.3427 15.2286 45.2931 14.646 46.074 13.871C47.0669 12.8825 47.7409 11.6191 48.009 10.2438C48.277 8.86854 48.1269 7.4445 47.5779 6.1554C47.528 6.03751 47.45 5.93367 47.3507 5.85301C47.2513 5.77235 47.1336 5.71733 47.008 5.69279C46.8824 5.66826 46.7527 5.67496 46.6303 5.7123C46.5079 5.74964 46.3965 5.81649 46.306 5.90696L42.4997 9.71008L40.6591 9.34212L40.2896 7.49993L44.0927 3.69602C44.1837 3.60552 44.251 3.494 44.2886 3.37132C44.3263 3.24863 44.3331 3.11856 44.3086 2.9926C44.284 2.86665 44.2288 2.74868 44.1478 2.64912C44.0669 2.54957 43.9626 2.47149 43.8443 2.4218C42.6926 1.93291 41.4313 1.76019 40.1906 1.92144C38.9499 2.08269 37.7747 2.57209 36.7862 3.33912C35.7978 4.10616 35.0319 5.12305 34.5676 6.28487C34.1033 7.44669 33.9575 8.71136 34.1451 9.94837C34.2136 10.327 34.1917 10.7164 34.081 11.0849C33.9704 11.4534 33.7741 11.7905 33.5083 12.0687L32.2583 13.3187L27.0537 8.11321L26.0021 6.01555C25.9318 5.8748 25.8208 5.75853 25.6833 5.68196L20.7154 2.92649C20.5669 2.84399 20.3957 2.81209 20.2275 2.83564C20.0593 2.85918 19.9034 2.93687 19.7833 3.05696L18.6818 4.15852C18.5619 4.27853 18.4843 4.43431 18.4607 4.60232C18.4372 4.77033 18.469 4.94143 18.5513 5.08977L21.3091 10.0585C21.3854 10.1961 21.5014 10.3075 21.6419 10.3781L23.7404 11.4304L28.9443 16.6351L27.6943 17.8851C27.4162 18.1517 27.0787 18.3485 26.7096 18.459C26.3406 18.5696 25.9505 18.5908 25.5716 18.521C24.3352 18.3354 23.0716 18.4826 21.911 18.9474C20.7503 19.4123 19.7345 20.178 18.968 21.1658C18.2016 22.1537 17.7122 23.3279 17.5502 24.5676C17.3883 25.8074 17.5596 27.0679 18.0466 28.2195C18.0964 28.3373 18.1745 28.4412 18.2738 28.5218C18.3732 28.6025 18.4909 28.6575 18.6165 28.6821C18.7421 28.7066 18.8718 28.6999 18.9942 28.6626C19.1166 28.6252 19.228 28.5584 19.3185 28.4679L23.1232 24.6648L24.9638 25.0327L25.3318 26.8741L21.5287 30.6781C21.4382 30.7686 21.3713 30.8799 21.334 31.0024C21.2966 31.1248 21.2899 31.2545 21.3145 31.3801C21.339 31.5057 21.394 31.6234 21.4747 31.7227C21.5554 31.8221 21.6592 31.9001 21.7771 31.9499C22.9288 32.4388 24.19 32.6115 25.4308 32.4503C26.6715 32.289 27.8467 31.7996 28.8352 31.0326C29.8236 30.2656 30.5895 29.2487 31.0538 28.0869C31.5181 26.925 31.6639 25.6604 31.4763 24.4234C31.4077 24.0448 31.4297 23.6553 31.5403 23.2868C31.651 22.9183 31.8472 22.5812 32.113 22.3031L33.363 21.0531L34.1443 21.8343L33.5935 22.3882C33.1997 22.7774 32.9569 23.2937 32.9082 23.8452C32.8596 24.3967 33.0082 24.9476 33.3278 25.3997C33.6473 25.8519 34.1169 26.1759 34.653 26.3141C35.1891 26.4524 35.7569 26.3959 36.2552 26.1546L40.8693 30.7695C41.232 31.1322 41.6626 31.42 42.1366 31.6164C42.6105 31.8127 43.1185 31.9138 43.6315 31.9138C44.1445 31.9139 44.6525 31.8129 45.1265 31.6166C45.6004 31.4203 46.0311 31.1326 46.3939 30.7699C46.7567 30.4071 47.0444 29.9765 47.2408 29.5026C47.4371 29.0286 47.5382 28.5206 47.5383 28.0076C47.5383 27.4946 47.4373 26.9866 47.241 26.5127C47.0447 26.0387 46.757 25.608 46.3943 25.2452L41.7779 20.6288ZM24.7552 10.2343C24.6964 10.175 24.6283 10.1257 24.5537 10.0882L22.5583 9.08743L20.2029 4.84368L20.4685 4.57805L24.7115 6.93352L25.7122 8.92805C25.7494 9.0031 25.7988 9.07147 25.8583 9.1304L31.1521 14.4249L30.0458 15.5304L24.7552 10.2343ZM31.0154 21.1976C30.5754 21.6478 30.2484 22.196 30.0611 22.797C29.8738 23.398 29.8317 24.0349 29.938 24.6554C30.0678 25.5151 29.9908 26.3935 29.7135 27.2175C29.4362 28.0416 28.9666 28.7878 28.3434 29.3942C27.7203 30.0006 26.9616 30.4498 26.1303 30.7046C25.299 30.9594 24.4189 31.0124 23.563 30.8593L26.7396 27.6835C26.8301 27.5928 26.8969 27.4812 26.934 27.3586C26.9712 27.236 26.9777 27.1061 26.9529 26.9804L26.3966 24.2187C26.3667 24.0666 26.2921 23.9268 26.1825 23.8172C26.0729 23.7075 25.9331 23.633 25.781 23.6031L23.0193 23.0507C22.8936 23.0259 22.7637 23.0323 22.6411 23.0695C22.5185 23.1067 22.4069 23.1735 22.3162 23.264L19.1404 26.4398C18.9875 25.5841 19.0407 24.7044 19.2954 23.8733C19.5502 23.0423 19.9992 22.2839 20.6052 21.6609C21.2113 21.0378 21.9571 20.5681 22.7808 20.2906C23.6044 20.013 24.4824 19.9356 25.3419 20.0648C25.9626 20.1673 26.5986 20.1233 27.1992 19.9364C27.7998 19.7495 28.3484 19.4248 28.8013 18.9882L34.613 13.1773C35.053 12.727 35.38 12.1789 35.5673 11.5779C35.7546 10.9768 35.7967 10.3399 35.6904 9.71946C35.5606 8.85971 35.6376 7.98141 35.9149 7.15732C36.1922 6.33323 36.6618 5.58708 37.285 4.98068C37.9081 4.37427 38.6667 3.92507 39.4981 3.67028C40.3294 3.41549 41.2095 3.36245 42.0654 3.51555L38.8888 6.69133C38.7983 6.78206 38.7315 6.89364 38.6943 7.01626C38.6572 7.13887 38.6507 7.26876 38.6755 7.39446L39.2279 10.1562C39.2582 10.3073 39.3325 10.4461 39.4415 10.5551C39.5505 10.6641 39.6892 10.7384 39.8404 10.7687L42.6021 11.321C42.7278 11.3459 42.8577 11.3394 42.9803 11.3022C43.1029 11.265 43.2145 11.1982 43.3052 11.1077L46.4841 7.93508C46.6369 8.79074 46.5838 9.67049 46.3291 10.5015C46.0743 11.3325 45.6253 12.091 45.0192 12.714C44.4132 13.337 43.6674 13.8067 42.8437 14.0843C42.02 14.3619 41.1421 14.4393 40.2826 14.3101C39.6616 14.2079 39.0254 14.2524 38.4247 14.44C37.824 14.6276 37.2756 14.9531 36.8232 15.3906L31.0154 21.1976ZM35.5794 18.8445L36.3607 19.6257L35.2497 20.7312L34.4685 19.9499L35.5794 18.8445ZM34.7021 24.5976C34.5556 24.4511 34.4733 24.2524 34.4733 24.0452C34.4733 23.8381 34.5556 23.6394 34.7021 23.4929L39.1216 19.0734C39.1942 19.0008 39.2804 18.9433 39.3752 18.9041C39.47 18.8648 39.5716 18.8447 39.6742 18.8447C39.7769 18.8447 39.8785 18.865 39.9733 18.9043C40.068 18.9436 40.1542 19.0012 40.2267 19.0738C40.2992 19.1463 40.3568 19.2325 40.396 19.3273C40.4352 19.4221 40.4554 19.5238 40.4554 19.6264C40.4553 19.729 40.4351 19.8306 40.3958 19.9254C40.3565 20.0202 40.2989 20.1063 40.2263 20.1788L35.806 24.5984C35.657 24.7414 35.4585 24.8212 35.2519 24.8211C35.0454 24.8209 34.847 24.7408 34.6982 24.5976H34.7021ZM45.2935 29.6648C44.8534 30.1034 44.2574 30.3498 43.6361 30.3498C43.0147 30.3498 42.4187 30.1034 41.9787 29.6648L37.4638 25.1499L40.7787 21.8359L45.2935 26.3499C45.5112 26.5676 45.6838 26.826 45.8017 27.1103C45.9195 27.3947 45.9801 27.6995 45.9801 28.0073C45.9801 28.3152 45.9195 28.62 45.8017 28.9044C45.6838 29.1887 45.5112 29.4471 45.2935 29.6648V29.6648Z" fill="#363D4F"/>
<path d="M47.7719 35.0781C47.5674 34.7227 47.2948 34.411 46.9698 34.1609C46.6448 33.9108 46.2737 33.7272 45.8777 33.6206C45.4817 33.5141 45.0685 33.4866 44.6619 33.5397C44.2553 33.5929 43.8631 33.7257 43.5078 33.9305L35.8898 38.3281C35.4749 37.7044 34.8478 37.2523 34.125 37.0555L22.4688 33.9305C21.5715 33.6899 20.6278 33.6818 19.7266 33.907L15.625 34.9367V33.5938C15.625 33.3865 15.5427 33.1878 15.3962 33.0413C15.2497 32.8948 15.051 32.8125 14.8438 32.8125H8.59375C8.38655 32.8125 8.18784 32.8948 8.04132 33.0413C7.89481 33.1878 7.8125 33.3865 7.8125 33.5938V34.375H2.34375C2.13655 34.375 1.93784 34.4573 1.79132 34.6038C1.64481 34.7503 1.5625 34.949 1.5625 35.1562V46.0938C1.5625 46.301 1.64481 46.4997 1.79132 46.6462C1.93784 46.7927 2.13655 46.875 2.34375 46.875H7.8125V47.6562C7.8125 47.8635 7.89481 48.0622 8.04132 48.2087C8.18784 48.3552 8.38655 48.4375 8.59375 48.4375H14.8438C15.051 48.4375 15.2497 48.3552 15.3962 48.2087C15.5427 48.0622 15.625 47.8635 15.625 47.6562V46.5766L16.6297 47.0789C17.3892 47.4578 18.2262 47.6554 19.075 47.6562H30.7758C31.7357 47.6558 32.6787 47.4031 33.5102 46.9234L46.6352 39.3453C47.3495 38.9281 47.8699 38.2454 48.0829 37.446C48.2958 36.6466 48.184 35.7954 47.7719 35.0781V35.0781ZM3.125 45.3125V35.9375H7.8125V45.3125H3.125ZM14.0625 46.875H9.375V34.375H14.0625V46.875ZM45.8516 37.9953L32.7266 45.5734C32.1327 45.9163 31.4591 46.0968 30.7734 46.0969H19.075C18.4689 46.0959 17.8713 45.9548 17.3289 45.6844L15.625 44.8297V36.5484L20.1047 35.4281C20.7487 35.2679 21.4228 35.2735 22.0641 35.4445L33.7203 38.5695C33.922 38.6194 34.1117 38.709 34.2783 38.833C34.4449 38.9571 34.5852 39.1131 34.6908 39.292C34.7964 39.4709 34.8653 39.669 34.8934 39.8749C34.9215 40.0807 34.9083 40.2901 34.8545 40.4907C34.8008 40.6914 34.7075 40.8793 34.5803 41.0435C34.453 41.2077 34.2943 41.3449 34.1134 41.447C33.9325 41.5491 33.733 41.6142 33.5267 41.6383C33.3204 41.6624 33.1113 41.6451 32.9117 41.5875L23.5938 39.0891C23.394 39.0366 23.1815 39.0654 23.0029 39.1692C22.8243 39.2729 22.694 39.4432 22.6406 39.6427C22.5872 39.8423 22.615 40.0549 22.718 40.234C22.8209 40.4131 22.9905 40.5441 23.1898 40.5984L32.5063 43.0984C32.7718 43.1696 33.0454 43.2059 33.3203 43.2063C33.7518 43.2095 34.1791 43.1223 34.5748 42.9503C34.9705 42.7782 35.3257 42.5251 35.6176 42.2074C35.9095 41.8896 36.1315 41.5142 36.2693 41.1053C36.4072 40.6964 36.4578 40.2632 36.418 39.8336L44.2867 35.2906C44.6468 35.0921 45.0697 35.0407 45.4668 35.1473C45.8639 35.254 46.2043 35.5103 46.4164 35.8625C46.622 36.2208 46.678 36.6457 46.5723 37.045C46.4665 37.4443 46.2075 37.7858 45.8516 37.9953V37.9953Z" fill="#363D4F"/>
</svg>
