<svg viewBox="0 0 50 50" fill="none" xmlns="http://www.w3.org/2000/svg">
<g clip-path="url(#clip0)">
<path d="M5.00003 50H45C45.4434 50.0018 45.8689 49.8254 46.1809 49.5104C46.4929 49.1955 46.6652 48.7683 46.6592 48.325V44.9592C46.3825 39.345 43.3259 38.4025 43.2025 38.3675L32.5 35.2108V30.5442C33.5942 29.5339 34.2706 28.1506 34.3959 26.6667H36.6667C38.0474 26.6667 39.1667 25.5474 39.1667 24.1667V19.1667C39.1623 18.111 38.4953 17.1719 37.5 16.82V11.6667C37.5 5.01583 32.1267 0 25 0C17.8734 0 12.5 5.01583 12.5 11.6667V16.82C11.5047 17.1719 10.8377 18.111 10.8334 19.1667V24.1667C10.8377 25.2223 11.5047 26.1615 12.5 26.5133V27.5C12.5 29.3409 13.9924 30.8333 15.8334 30.8333H17.5V35.2108L6.8042 38.3658C6.6742 38.4025 3.6192 39.345 3.3417 45V48.3108C3.33204 48.7564 3.50264 49.1869 3.81484 49.5049C4.12704 49.8229 4.55439 50.0014 5.00003 50ZM14.1667 13.4167C15.2245 8.33362 19.8133 4.76847 25 5C30.1815 4.78497 34.7609 8.3428 35.8334 13.4167V16.6667H34.8034C33.97 13.1542 32.36 12.0758 32.1759 11.9633C29.8567 10.5717 22.5984 10.8017 19.8792 10.9758C19.0899 11.0055 18.3393 11.3257 17.7717 11.875C16.5499 13.2391 15.6868 14.8858 15.26 16.6667H14.1667V13.4167ZM19.1667 32.3167C20.53 34.0833 21.1717 35.8333 23.685 35.8333C27.4625 35.8333 28.1409 36.18 30.1059 33.3225C30.3267 33.0017 30.5667 32.6608 30.8342 32.3125V35.7017C29.4942 39.2475 20.4784 39.2175 19.1675 35.7017L19.1667 32.3167ZM31.0167 29.66C28.4167 31.9942 28.3409 34.1667 26.3142 34.1667C22.715 34.1667 22.7392 34.5167 21.2675 32.3783C20.95 31.9167 20.575 31.3875 20.11 30.8333H21.8984C22.1937 31.3473 22.7406 31.6649 23.3334 31.6667H26.6667C27.5872 31.6667 28.3334 30.9205 28.3334 30V28.3333C28.3334 27.4129 27.5872 26.6667 26.6667 26.6667H23.3334C22.4129 26.6667 21.6667 27.4129 21.6667 28.3333V29.1667H18.5C17.1667 27.7175 17.2 26.4367 17.2584 24.8583C17.3637 23.6399 17.2831 22.4125 17.0192 21.2183C16.6967 19.5358 16.4942 18.385 16.8942 16.9992C17.252 15.5369 17.9585 14.1831 18.9534 13.0533C19.234 12.7938 19.5996 12.6457 19.9817 12.6367C22.6917 12.4625 28.835 12.2567 31.3234 13.395C32.3134 14.1633 33.5267 16.8275 33.3275 18.9475C33.1359 20.9583 32.7134 21.9475 32.7134 23.5308C32.7117 26.1208 33.2284 27.6667 31.0159 29.6558L31.0167 29.66ZM23.3334 30V28.3333H26.6667V30H23.3334ZM37.5 24.1667C37.5 24.6269 37.1269 25 36.6667 25H34.4167C34.2892 21.4275 34.6809 22.3333 34.985 19.1092C35.0042 18.851 35.0092 18.592 35 18.3333H36.6667C37.1269 18.3333 37.5 18.7064 37.5 19.1667V24.1667ZM35.27 8.32C33.4834 5.83333 30.3567 3.33333 25 3.33333C19.6434 3.33333 16.5167 5.83333 14.73 8.32C17.8334 -0.579166 32.1667 -0.566666 35.27 8.32ZM12.5 19.1667C12.5 18.7064 12.8731 18.3333 13.3334 18.3333H15.0109C15.0227 19.4091 15.1464 20.4807 15.38 21.5308C15.6295 22.6694 15.6981 23.8401 15.5834 25H13.3334C12.8731 25 12.5 24.6269 12.5 24.1667V19.1667ZM14.1667 27.5V26.6667H15.6042C15.6738 27.551 15.9486 28.407 16.4067 29.1667H15.8334C14.9129 29.1667 14.1667 28.4205 14.1667 27.5ZM7.27086 39.9658L17.8742 36.8375C18.5342 38 20.3425 40 25 40C29.6575 40 31.4659 38 32.1259 36.8333L42.7184 39.9583C42.8017 39.9867 44.7834 40.7083 44.9959 44.9958V48.3333H5.00836V45.0408C5.2217 40.7083 7.19836 39.9908 7.27086 39.9658Z" fill="#363D4F"/>
</g>
<defs>
<clipPath id="clip0">
<rect width="50" height="50" fill="white"/>
</clipPath>
</defs>
</svg>
