<svg viewBox="0 0 32 32" fill="#434B60" xmlns="http://www.w3.org/2000/svg">
<path d="M16.2099 5.3335C10.3619 5.33438 7.25342 9.08105 7.25342 13.1664C7.25342 15.0606 8.31208 17.4242 10.0072 18.1735C10.4908 18.3913 10.4268 18.1255 10.8428 16.5344C10.8756 16.4019 10.8588 16.2873 10.7521 16.1637C8.32897 13.3611 10.2792 7.59927 15.8641 7.59927C23.9468 7.59927 22.4365 18.7833 17.2703 18.7833C15.9388 18.7833 14.9468 17.7379 15.2605 16.4446C15.641 14.9042 16.3859 13.2482 16.3859 12.1379C16.3859 9.33972 12.217 9.75483 12.217 13.4624C12.217 14.6082 12.6223 15.3815 12.6223 15.3815C12.6223 15.3815 11.281 20.8002 11.0321 21.8126C10.6108 23.5264 11.089 26.3006 11.1308 26.5397C11.1565 26.6713 11.3041 26.7131 11.3868 26.6046C11.5192 26.4313 13.1405 24.1184 13.5948 22.4464C13.7601 21.8375 14.4383 19.3664 14.4383 19.3664C14.8854 20.1735 16.1743 20.8491 17.5476 20.8491C21.633 20.8491 24.5859 17.2579 24.5859 12.8019C24.5716 8.52994 20.9156 5.3335 16.2099 5.3335V5.3335Z"/>
</svg>
