<svg width="58" height="50" viewBox="0 0 58 50" fill="none" xmlns="http://www.w3.org/2000/svg">
<path d="M27.1783 0.0232997C27.0448 0.043069 26.5298 0.132037 26.0339 0.221005C23.5831 0.646072 20.9224 1.90151 18.8721 3.5919C15.0003 6.79474 12.7688 11.6484 12.7688 16.8679C12.7688 21.079 14.142 24.7761 16.9648 28.1272C18.6146 30.0845 21.3039 31.9034 23.8406 32.7733C25.538 33.3467 26.3868 33.4851 28.5134 33.5444C30.6781 33.6037 31.8607 33.4554 33.6154 32.9315C40.0715 30.9841 44.7253 25.0035 45.1925 18.0146C45.7647 9.47366 40.2813 2.01025 32.1372 0.240777C31.4601 0.0924952 30.7544 0.043069 29.324 0.013415C28.275 -0.00635731 27.3118 -0.00635731 27.1783 0.0232997ZM31.8607 1.83231C37.325 3.04821 41.6069 7.15061 43.1422 12.6468C43.9051 15.3851 43.8384 18.756 42.961 21.5436C42.5986 22.6705 41.893 24.1731 41.2349 25.2012L40.6723 26.081L40.6437 24.6575L40.6151 23.2439L40.9488 22.5025C42.8371 18.1925 42.4651 13.151 39.9761 9.25618C37.2678 5.03515 32.4138 2.65279 27.6551 3.21625C23.1158 3.75995 19.4157 6.38944 17.3081 10.561C15.4962 14.1494 15.3627 18.3507 16.9171 22.1763L17.3558 23.2538V24.6278L17.3463 26.0118L17.1079 25.7152C16.7741 25.3 15.8872 23.7382 15.563 22.9869C14.2565 19.9521 13.9513 16.3637 14.7333 13.1609C15.0289 11.9351 15.6393 10.3633 16.221 9.3056C18.5479 5.07469 22.4864 2.31669 27.1783 1.64449C28.2082 1.49621 30.8117 1.60495 31.8607 1.83231ZM31.3266 5.01538C33.396 5.45033 35.3128 6.48829 36.8863 8.02051C39.3467 10.4226 40.5674 13.319 40.5674 16.769C40.5674 18.7757 40.2241 20.3673 39.423 22.028L39.0988 22.7002V25.2506V27.8109L38.6983 28.1964C38.2214 28.6512 37.6302 29.1256 37.5444 29.1256C37.5062 29.1256 37.4776 27.633 37.4776 25.8141V22.4926L38.0021 21.3855C39.4135 18.3704 39.4135 15.1379 38.0021 12.1723C36.6098 9.25618 34.0826 7.22969 30.9929 6.56737C29.7722 6.30047 27.6074 6.35978 26.4631 6.686C22.9155 7.68441 20.1977 10.5116 19.244 14.1692C18.9675 15.2664 18.9007 17.5005 19.1105 18.6868C19.3012 19.7247 19.7018 20.9011 20.169 21.7809L20.5028 22.4135V25.7646C20.5028 27.6132 20.4742 29.1256 20.4456 29.1256C20.3693 29.1256 19.6731 28.5721 19.2917 28.1964L18.977 27.8999V25.3692V22.8386L18.6528 22.2059C17.8517 20.6441 17.4321 18.7658 17.4226 16.769C17.4226 13.6551 18.4716 10.8873 20.5314 8.60375C23.3161 5.49976 27.3023 4.17513 31.3266 5.01538ZM31.3076 8.30719C32.8334 8.78168 33.9587 9.48354 35.0554 10.6599C36.1044 11.7769 36.667 12.7457 37.1438 14.2977C37.4681 15.3356 37.573 17.1644 37.3822 18.2914C37.2201 19.2305 36.8005 20.4167 36.3332 21.2273L35.9518 21.8896V26.0612V30.2229L35.2461 30.5689C34.8551 30.7567 34.5118 30.905 34.4832 30.905C34.4546 30.905 34.426 28.75 34.426 26.1205V21.3459L34.8456 20.6836C35.6561 19.4084 36.009 17.9849 35.9232 16.3835C35.8373 14.792 35.4368 13.6749 34.4927 12.37C33.644 11.1937 32.3947 10.3139 30.8975 9.83941C29.8676 9.50331 28.1033 9.50331 27.0829 9.83941C24.6893 10.6105 23.0395 12.3206 22.3052 14.792C22.124 15.3851 22.0763 15.7607 22.0763 16.7196C22.0763 17.4017 22.1335 18.1332 22.2098 18.4495C22.3719 19.1316 22.8678 20.2684 23.2588 20.8615L23.5545 21.3064V26.1007C23.5545 28.7401 23.5354 30.905 23.5163 30.905C23.4877 30.905 23.1444 30.7567 22.7534 30.5689L22.0286 30.2229V26.0118C22.0286 22.0478 22.0191 21.771 21.8474 21.5337C21.5614 21.0988 21.1131 20.1201 20.9033 19.438C20.169 17.0557 20.4551 14.4756 21.7139 12.2218C22.2384 11.2926 23.7929 9.7109 24.7274 9.16721C25.538 8.69272 26.7587 8.22811 27.5597 8.07983C27.8458 8.02051 28.6183 8.00074 29.2763 8.01063C30.2204 8.04028 30.64 8.0996 31.3076 8.30719ZM29.9629 11.2728C32.1372 11.7077 33.8347 13.408 34.2829 15.6322C34.4736 16.5614 34.4641 17.1842 34.2448 18.0838C34.0254 18.9636 33.7775 19.4974 33.272 20.1992L32.9001 20.7133V26.1007V31.4784L32.2326 31.6365C31.4029 31.8342 30.4016 31.9825 30.3062 31.9232C30.2585 31.9034 30.2299 29.353 30.2299 26.2589V20.6342L30.8021 20.3178C31.8702 19.7346 32.595 18.6571 32.8143 17.372C33.1004 15.7212 32.1849 13.9319 30.6591 13.151C30.125 12.8841 30.0106 12.8643 28.9902 12.8643C27.9794 12.8643 27.8554 12.8841 27.3404 13.1411C26.6156 13.5167 25.8527 14.2977 25.4999 15.0391C25.2424 15.5927 25.2233 15.7113 25.2233 16.769C25.2233 17.8169 25.2424 17.9553 25.4904 18.4693C25.8623 19.2502 26.4917 19.9422 27.1688 20.3178L27.7505 20.6342V26.2589C27.7505 29.353 27.7219 31.9034 27.6837 31.9232C27.5979 31.9825 26.0721 31.7354 25.538 31.5871L25.1757 31.4882V26.1403V20.8022L24.737 20.1992C24.2125 19.4776 24.0027 19.0624 23.8119 18.3803C22.9632 15.4246 24.6798 12.2317 27.5597 11.3914C28.5229 11.1146 29.0284 11.085 29.9629 11.2728ZM30.1918 14.7524C30.8593 15.1775 31.2122 15.82 31.2599 16.6702C31.2885 17.2237 31.2599 17.4017 31.0596 17.8169C30.6019 18.7461 29.8866 19.181 28.8948 19.1217C27.6837 19.0525 26.8064 18.1826 26.7205 16.9667C26.6633 16.2253 26.8254 15.7508 27.3118 15.2071C27.8649 14.5844 28.3131 14.3867 29.0951 14.4163C29.6005 14.446 29.8199 14.5152 30.1918 14.7524Z" fill="#323C46"/>
<path d="M-0.000488281 37.6768V38.517H1.47765H2.9558V41.9275V45.3379H3.76639H4.57699V41.9275V38.517H6.10281H7.62864V37.6768V36.8365H3.81407H-0.000488281V37.6768Z" fill="#323C46"/>
<path d="M8.58252 41.0872V45.3379H12.4924H16.4023V44.4976V43.6574H13.303H10.2037V42.7183V41.7792H13.2077H16.2116V41.0872V40.3952H13.2077H10.2037V39.4561V38.517H13.303H16.4023V37.6768V36.8365H12.4924H8.58252V41.0872Z" fill="#323C46"/>
<path d="M17.7373 41.0872V45.3379H18.5002H19.2631L19.2822 43.5783L19.3108 41.8286H21.7426H24.1744L24.203 43.5783L24.2221 45.3379H24.985H25.7479V41.0872V36.8365H24.985H24.2221L24.203 38.5368L24.1744 40.247H21.7426H19.3108L19.2822 38.5368L19.2631 36.8365H18.5002H17.7373V41.0872Z" fill="#323C46"/>
<path d="M30.5828 37.7954C30.2967 38.3292 29.2953 40.2074 28.3703 41.9769C27.4357 43.7464 26.6538 45.2193 26.6347 45.2588C26.6156 45.3082 27.0161 45.3379 27.5311 45.3379H28.4657L28.9711 44.3494L29.4765 43.3608H31.9465H34.4164L34.9218 44.3494L35.4272 45.3379H36.3618H37.2964L36.8386 44.468C36.5907 43.9935 35.5894 42.0955 34.6071 40.247L32.8333 36.886L31.9655 36.8563L31.1073 36.8266L30.5828 37.7954ZM32.881 40.2667L33.7488 41.9275L32.8524 41.9571C32.3565 41.967 31.5459 41.967 31.05 41.9571L30.1536 41.9275L31.0214 40.2667C31.4982 39.3573 31.9178 38.6159 31.956 38.6159C31.9846 38.6159 32.4042 39.3573 32.881 40.2667Z" fill="#FF4F5A"/>
<path d="M38.1453 41.0872V45.3379H38.9559H39.7665V43.9539V42.57H41.0443H42.3222L43.7336 43.9539L45.1545 45.3379H46.2798C46.8901 45.3379 47.3956 45.3181 47.3956 45.2983C47.3956 45.2786 46.7185 44.6459 45.8984 43.8946L44.4011 42.5206L45.1641 42.4613C45.9842 42.402 46.4133 42.224 46.7185 41.8187C47.0523 41.3739 47.1286 40.9192 47.0904 39.5056C47.0523 37.914 46.9187 37.5285 46.2417 37.1331L45.8221 36.886L41.9884 36.8563L38.1453 36.8266V41.0872ZM45.288 38.7048C45.5074 38.9322 45.6313 39.7922 45.536 40.3755C45.412 41.1366 45.4311 41.1366 42.4271 41.1663L39.7665 41.1959V39.8614V38.517H42.4366C44.9447 38.517 45.1164 38.5269 45.288 38.7048Z" fill="#323C46"/>
<path d="M49.6841 36.9454C49.1691 37.1035 48.8163 37.4199 48.6065 37.9141C48.4253 38.3194 48.3967 38.6061 48.3681 40.5535C48.3109 43.8453 48.4825 44.5966 49.3789 45.0612C49.8176 45.2886 49.8748 45.2886 53.0219 45.2886C56.598 45.2886 56.8936 45.2391 57.3514 44.6164C57.7519 44.0727 57.8091 43.5883 57.771 40.7809C57.7424 38.0426 57.7329 37.9636 57.2751 37.4495C56.7983 36.8959 56.7697 36.8861 53.2603 36.8663C51.2671 36.8564 49.8939 36.8861 49.6841 36.9454ZM55.9305 38.7643C56.1689 39.0015 56.1689 39.0114 56.1689 41.0675C56.1689 42.9655 56.1498 43.1632 55.9877 43.3708C55.8065 43.6081 55.797 43.6081 53.3366 43.6377C50.5424 43.6773 50.2372 43.6278 50.0751 43.1435C49.9416 42.7579 49.932 39.3178 50.0656 38.962C50.1132 38.8236 50.2563 38.6654 50.3707 38.616C50.4947 38.5666 51.744 38.527 53.1458 38.527L55.7016 38.5171L55.9305 38.7643Z" fill="#323C46"/>
<path d="M3.05103 47.6608C3.05103 47.7696 3.16546 47.8091 3.52784 47.8091H4.00466V48.8965C4.00466 49.9147 4.0142 49.9839 4.19539 49.9839C4.37658 49.9839 4.38611 49.9147 4.38611 48.8965V47.8091H4.86293C5.22531 47.8091 5.33975 47.7696 5.33975 47.6608C5.33975 47.5323 5.14902 47.5126 4.19539 47.5126C3.24175 47.5126 3.05103 47.5323 3.05103 47.6608Z" fill="#323C46"/>
<path d="M6.02679 47.6312C5.87421 47.7893 5.87421 49.7071 6.02679 49.8653C6.10308 49.9443 6.49407 49.9839 7.17115 49.9839C8.01988 49.9839 8.20108 49.9542 8.20108 49.8356C8.20108 49.717 8.03896 49.6873 7.3142 49.6873C6.34149 49.6873 6.19844 49.6181 6.19844 49.1733V48.8965H7.00903C7.6575 48.8965 7.81962 48.8668 7.81962 48.7482C7.81962 48.6395 7.64797 48.5999 7.03764 48.5802C6.29381 48.5505 6.24613 48.5406 6.21752 48.3232C6.1603 47.8981 6.34149 47.8091 7.30466 47.8091C8.03896 47.8091 8.20108 47.7795 8.20108 47.6608C8.20108 47.5422 8.01988 47.5126 7.17115 47.5126C6.49407 47.5126 6.10308 47.5521 6.02679 47.6312Z" fill="#323C46"/>
<path d="M8.83032 47.73C8.72542 47.8882 8.67773 48.1848 8.67773 48.7482C8.67773 49.9443 8.72542 49.9839 10.0224 49.9839C10.8711 49.9839 11.0618 49.9542 11.0618 49.8356C11.0618 49.7269 10.8711 49.6873 10.0891 49.6676L9.10687 49.6379L9.07826 48.8668C9.05919 48.3726 9.0878 48.0365 9.16409 47.9475C9.24038 47.8487 9.51693 47.8091 10.1654 47.8091C10.8997 47.8091 11.0618 47.7795 11.0618 47.6608C11.0618 47.5422 10.8806 47.5126 10.0224 47.5126C9.04965 47.5126 8.96382 47.5323 8.83032 47.73Z" fill="#323C46"/>
<path d="M11.634 48.7482C11.634 49.7763 11.6531 49.9839 11.7771 49.9839C11.8915 49.9839 11.9201 49.8554 11.9201 49.4402V48.8965H12.7307H13.5413V49.4402C13.5413 49.9147 13.5604 49.9839 13.732 49.9839C13.9132 49.9839 13.9228 49.9147 13.9228 48.7482C13.9228 47.5818 13.9132 47.5126 13.732 47.5126C13.5604 47.5126 13.5413 47.5818 13.5413 48.0563V48.6098L12.7593 48.5802L11.9678 48.5505L11.9392 48.0266C11.9201 47.6608 11.8724 47.5126 11.7675 47.5126C11.6626 47.5126 11.634 47.7399 11.634 48.7482Z" fill="#323C46"/>
<path d="M14.4949 48.7482C14.4949 49.7763 14.5139 49.9839 14.6379 49.9839C14.7524 49.9839 14.781 49.8158 14.781 49.025V48.0563L15.7155 49.025C16.221 49.5489 16.7169 49.9839 16.8122 49.9839C16.9553 49.9839 16.9744 49.8554 16.9744 48.7482C16.9744 47.5818 16.9648 47.5126 16.7836 47.5126C16.6215 47.5126 16.5929 47.5916 16.5738 48.4022L16.5452 49.2919L15.6202 48.4022C15.1147 47.9179 14.657 47.5126 14.5998 47.5126C14.533 47.5126 14.4949 47.9277 14.4949 48.7482Z" fill="#323C46"/>
<path d="M17.6324 47.6806C17.4226 47.9376 17.394 49.4303 17.5847 49.7368C17.7373 49.974 17.785 49.9839 18.7673 49.9839C19.4443 49.9839 19.8353 49.9443 19.9116 49.8653C20.0642 49.7071 20.0642 47.7893 19.9116 47.6312C19.8353 47.5521 19.4443 47.5126 18.7768 47.5126C17.9471 47.5126 17.7373 47.5422 17.6324 47.6806ZM19.6255 47.9277C19.7972 48.1057 19.7781 49.4303 19.6065 49.5786C19.5206 49.6577 19.1773 49.6873 18.6719 49.6676L17.8804 49.6379L17.8518 48.8668C17.8327 48.3726 17.8613 48.0365 17.9376 47.9475C18.0806 47.7696 19.4539 47.7498 19.6255 47.9277Z" fill="#323C46"/>
<path d="M20.5979 48.6296C20.5979 49.371 20.636 49.7862 20.7123 49.8653C20.7886 49.9443 21.1796 49.9839 21.8567 49.9839C22.7055 49.9839 22.8867 49.9542 22.8867 49.8356C22.8867 49.717 22.7245 49.6873 21.9998 49.6873C21.4371 49.6873 21.0747 49.6478 20.9984 49.5687C20.9221 49.4896 20.884 49.1041 20.884 48.4813C20.884 47.6905 20.8554 47.5126 20.7409 47.5126C20.6265 47.5126 20.5979 47.7004 20.5979 48.6296Z" fill="#323C46"/>
<path d="M23.5166 47.73C23.4117 47.8882 23.364 48.1848 23.364 48.7482C23.364 49.9443 23.4117 49.9839 24.6896 49.9839C25.3571 49.9839 25.7481 49.9443 25.8244 49.8653C25.9007 49.7862 25.9388 49.4007 25.9388 48.7878C25.9388 47.5126 25.9388 47.5126 24.6514 47.5126C23.7359 47.5126 23.6501 47.5323 23.5166 47.73ZM25.5383 47.9277C25.7099 48.1057 25.6909 49.4303 25.5192 49.5786C25.4334 49.6577 25.0901 49.6873 24.5847 49.6676L23.7931 49.6379L23.7645 48.857C23.7455 48.422 23.755 48.0167 23.7836 47.9376C23.8504 47.7696 25.3762 47.7597 25.5383 47.9277Z" fill="#323C46"/>
<path d="M26.6252 47.6312C26.5489 47.7103 26.5107 48.1057 26.5107 48.7482C26.5107 49.3908 26.5489 49.7862 26.6252 49.8653C26.7015 49.9443 27.0829 49.9839 27.7123 49.9839C28.9139 49.9839 28.9902 49.9246 28.9902 49.0843V48.5011H28.4657C28.008 48.5011 27.9412 48.5209 27.9412 48.6988C27.9412 48.857 28.008 48.8965 28.2845 48.8965C28.6183 48.8965 28.6183 48.9064 28.5897 49.2623L28.5611 49.6379L27.76 49.6676C27.1783 49.6873 26.9303 49.6577 26.8827 49.5687C26.7587 49.371 26.7778 48.0661 26.9113 47.9277C26.9876 47.8487 27.35 47.8091 27.9126 47.8091C28.6374 47.8091 28.7995 47.7795 28.7995 47.6608C28.7995 47.5422 28.6183 47.5126 27.7696 47.5126C27.0925 47.5126 26.7015 47.5521 26.6252 47.6312Z" fill="#323C46"/>
<path d="M30.0295 48.2342C30.5731 48.9163 30.6112 48.9954 30.6112 49.4699C30.6112 49.8653 30.6494 49.9839 30.7543 49.9839C30.8592 49.9839 30.8973 49.8653 30.8973 49.4995C30.8973 49.0448 30.945 48.9558 31.479 48.2836C32.0321 47.6114 32.0512 47.562 31.8414 47.5323C31.727 47.5126 31.5744 47.5521 31.5267 47.6312C31.4695 47.7103 31.2788 47.9475 31.1071 48.165L30.7924 48.5505L30.3442 48.0266C30.0486 47.6806 29.8197 47.5126 29.6767 47.5126C29.4764 47.5126 29.5146 47.5818 30.0295 48.2342Z" fill="#323C46"/>
<path d="M34.0065 47.73C33.7967 48.0365 33.8158 48.4615 34.0446 48.6988C34.2067 48.8668 34.3593 48.8965 35.046 48.8965C35.8279 48.8965 35.8566 48.9064 35.9138 49.1436C36.0187 49.5885 35.8279 49.6873 34.8457 49.6873C34.1114 49.6873 33.9493 49.717 33.9493 49.8356C33.9493 49.9542 34.1305 49.9839 34.9792 49.9839C35.6563 49.9839 36.0473 49.9443 36.1236 49.8653C36.2952 49.6873 36.2666 48.8471 36.0854 48.6889C35.9901 48.6098 35.5895 48.5307 35.1032 48.5011L34.283 48.4517V48.1551V47.8585L35.2176 47.8289C35.9519 47.8091 36.1426 47.7696 36.1426 47.6608C36.1426 47.5422 35.9615 47.5126 35.1509 47.5126C34.2258 47.5126 34.14 47.5323 34.0065 47.73Z" fill="#323C46"/>
<path d="M36.9245 47.6312C36.8482 47.7103 36.8101 48.1057 36.8101 48.7482C36.8101 49.3908 36.8482 49.7862 36.9245 49.8653C37.0008 49.9443 37.3918 49.9839 38.0593 49.9839C39.3372 49.9839 39.3849 49.9443 39.3849 48.7482C39.3849 47.5521 39.3372 47.5126 38.0593 47.5126C37.3918 47.5126 37.0008 47.5521 36.9245 47.6312ZM38.9558 48.7482V49.6379L38.1642 49.6676C37.6588 49.6873 37.3155 49.6577 37.2297 49.5786C37.058 49.4303 37.0389 48.1057 37.2106 47.9277C37.2964 47.8388 37.5921 47.8091 38.1452 47.8289L38.9558 47.8585V48.7482Z" fill="#323C46"/>
<path d="M39.8616 48.5604C39.8616 50.0135 39.833 49.9838 41.1014 49.9838C41.9692 49.9838 42.1504 49.9542 42.1504 49.8356C42.1504 49.7169 41.9882 49.6873 41.2444 49.6873C40.1477 49.6873 40.1477 49.6774 40.1477 48.4121C40.1477 47.6806 40.1191 47.5125 40.0047 47.5125C39.8902 47.5125 39.8616 47.6904 39.8616 48.5604Z" fill="#323C46"/>
<path d="M42.7227 48.6296C42.7227 49.371 42.7608 49.7862 42.8371 49.8653C42.9134 49.9443 43.2948 49.9839 43.9242 49.9839C45.2117 49.9839 45.2021 49.9938 45.2021 48.5901C45.2021 47.5818 45.1926 47.5126 45.0114 47.5126C44.8397 47.5126 44.8207 47.5916 44.8016 48.5703L44.773 49.6379L43.9719 49.6676C43.3902 49.6873 43.1423 49.6577 43.0946 49.5687C43.0469 49.4995 43.0087 49.0052 43.0087 48.4714C43.0087 47.6905 42.9801 47.5126 42.8657 47.5126C42.7513 47.5126 42.7227 47.7004 42.7227 48.6296Z" fill="#323C46"/>
<path d="M45.6792 47.6608C45.6792 47.7795 45.8032 47.8091 46.2037 47.8091H46.7282V48.8965C46.7282 49.7961 46.7568 49.9839 46.8713 49.9839C46.9857 49.9839 47.0143 49.7961 47.0143 48.8965V47.8091H47.5388C47.9393 47.8091 48.0633 47.7795 48.0633 47.6608C48.0633 47.5323 47.863 47.5126 46.8713 47.5126C45.8795 47.5126 45.6792 47.5323 45.6792 47.6608Z" fill="#323C46"/>
<path d="M48.5398 48.7482C48.5398 49.9147 48.5493 49.9839 48.7305 49.9839C48.9117 49.9839 48.9213 49.9147 48.9213 48.7482C48.9213 47.5818 48.9117 47.5126 48.7305 47.5126C48.5493 47.5126 48.5398 47.5818 48.5398 48.7482Z" fill="#323C46"/>
<path d="M49.6078 47.6312C49.5316 47.7103 49.4934 48.1057 49.4934 48.7482C49.4934 49.3908 49.5316 49.7862 49.6078 49.8653C49.7604 50.0234 51.7058 50.0234 51.8584 49.8653C51.9347 49.7862 51.9729 49.3908 51.9729 48.7482C51.9729 48.1057 51.9347 47.7103 51.8584 47.6312C51.7821 47.5521 51.3911 47.5126 50.7331 47.5126C50.0751 47.5126 49.6841 47.5521 49.6078 47.6312ZM51.5723 47.9277C51.6868 48.0464 51.7344 49.2524 51.6295 49.5292C51.5819 49.6577 51.4102 49.6873 50.7331 49.6873C50.0561 49.6873 49.8844 49.6577 49.8367 49.5292C49.7318 49.2524 49.7795 48.0464 49.8939 47.9277C50.0465 47.7696 51.4198 47.7696 51.5723 47.9277Z" fill="#323C46"/>
<path d="M52.5449 48.7581C52.5449 49.8554 52.564 49.9938 52.6975 49.9641C52.8406 49.9345 52.8596 49.806 52.8406 49.0646C52.831 48.5901 52.8596 48.2045 52.8978 48.2045C52.9455 48.2045 53.3651 48.5999 53.8323 49.0942C54.3473 49.628 54.7669 49.9839 54.8813 49.9839C55.0625 49.9839 55.0721 49.9345 55.0435 48.7482C55.0149 47.7498 54.9863 47.5126 54.8718 47.5126C54.7669 47.5126 54.7383 47.7004 54.7383 48.4714V49.4402L53.8037 48.4714C53.2983 47.9475 52.8024 47.5126 52.707 47.5126C52.564 47.5126 52.5449 47.6411 52.5449 48.7581Z" fill="#323C46"/>
<path d="M55.7495 47.6708C55.5397 47.8784 55.5492 48.5309 55.7685 48.7286C55.8925 48.8472 56.1691 48.8966 56.7412 48.9164L57.5518 48.9461V49.292V49.638L56.6268 49.6677C55.883 49.6874 55.6922 49.727 55.6922 49.8357C55.6922 49.9544 55.8639 49.984 56.5314 49.9939C57.6281 50.0137 57.7235 49.9939 57.8665 49.8061C58.0477 49.5589 58.0096 48.9263 57.7902 48.6989C57.6281 48.5309 57.4755 48.5012 56.7985 48.5012C55.9497 48.5012 55.8448 48.4419 55.9879 48.0267C56.0642 47.8191 56.1214 47.8092 56.932 47.8092C57.6281 47.8092 57.7902 47.7796 57.7902 47.661C57.7902 47.4435 55.9593 47.4435 55.7495 47.6708Z" fill="#323C46"/>
</svg>
